<?xml version="1.0" encoding="utf-8"?>
<!-- Generator: Adobe Illustrator 16.0.0, SVG Export Plug-In . SVG Version: 6.00 Build 0)  -->
<!DOCTYPE svg PUBLIC "-//W3C//DTD SVG 1.1//EN" "http://www.w3.org/Graphics/SVG/1.1/DTD/svg11.dtd">
<svg version="1.1" id="Layer_1" xmlns="http://www.w3.org/2000/svg" xmlns:xlink="http://www.w3.org/1999/xlink" x="0px" y="0px"
	 width="473px" height="138.684px" viewBox="0 0 473 138.684" enable-background="new 0 0 473 138.684" xml:space="preserve">
<path fill="#1FB8FC" d="M28.138,107.114V19.59h7.874v87.524H28.138z"/>
<path fill="#1FB8FC" d="M87.769,107.114V61.338c0-1.505-0.285-2.919-0.854-4.242c-0.57-1.322-1.343-2.472-2.319-3.449
	s-2.126-1.749-3.449-2.319c-1.322-0.569-2.737-0.854-4.242-0.854H71.9c-1.506,0-2.92,0.285-4.242,0.854
	c-1.323,0.57-2.472,1.343-3.449,2.319s-1.75,2.126-2.319,3.449c-0.57,1.322-0.854,2.737-0.854,4.242v45.776h-7.507v-62.5h2.502
	l4.089,6.348c1.709-2.319,3.855-4.16,6.439-5.524c2.583-1.363,5.401-2.044,8.453-2.044h1.892c2.522,0,4.903,0.479,7.141,1.434
	c2.237,0.957,4.19,2.269,5.859,3.937c1.668,1.669,2.98,3.622,3.937,5.859c0.956,2.238,1.435,4.619,1.435,7.141v45.349H87.769z"/>
<path fill="#1FB8FC" d="M153.26,91.245c0,2.523-0.509,4.832-1.526,6.927c-1.018,2.096-2.401,3.897-4.15,5.402
	c-1.75,1.506-3.774,2.676-6.073,3.509c-2.299,0.834-4.71,1.251-7.233,1.251h-5.005c-2.523,0-4.934-0.479-7.233-1.434
	c-2.299-0.956-4.313-2.268-6.042-3.937c-1.73-1.668-3.113-3.621-4.15-5.859c-1.038-2.237-1.557-4.618-1.557-7.141v-2.502
	l7.507-1.221v4.15c0,1.506,0.315,2.92,0.946,4.242c0.631,1.323,1.475,2.472,2.533,3.449c1.058,0.977,2.278,1.75,3.662,2.319
	c1.383,0.57,2.828,0.854,4.333,0.854h5.005c1.505,0,2.95-0.223,4.333-0.671c1.383-0.447,2.614-1.088,3.692-1.923
	c1.078-0.833,1.933-1.84,2.563-3.021c0.631-1.18,0.946-2.522,0.946-4.028c0-2.237-0.488-4.068-1.465-5.493
	c-0.977-1.424-2.269-2.614-3.876-3.571c-1.607-0.956-3.438-1.749-5.493-2.38s-4.161-1.261-6.317-1.893
	c-2.157-0.63-4.263-1.352-6.317-2.167c-2.055-0.813-3.886-1.882-5.493-3.205c-1.608-1.322-2.899-2.98-3.876-4.974
	c-0.977-1.993-1.465-4.476-1.465-7.446c0-2.522,0.488-4.832,1.465-6.927s2.298-3.896,3.967-5.402
	c1.668-1.505,3.611-2.675,5.829-3.509s4.587-1.251,7.111-1.251h4.395c2.522,0,4.903,0.479,7.141,1.434
	c2.237,0.957,4.19,2.269,5.859,3.937c1.668,1.669,2.98,3.622,3.937,5.859c0.956,2.238,1.435,4.619,1.435,7.141v0.244l-7.507,1.221
	v-1.892c0-1.505-0.285-2.919-0.854-4.242c-0.57-1.322-1.343-2.472-2.319-3.449s-2.126-1.749-3.449-2.319
	c-1.322-0.569-2.737-0.854-4.242-0.854h-4.395c-1.506,0-2.92,0.224-4.242,0.671c-1.323,0.448-2.472,1.089-3.449,1.923
	s-1.75,1.841-2.319,3.021c-0.57,1.181-0.854,2.523-0.854,4.028c0,2.157,0.488,3.917,1.465,5.28s2.268,2.513,3.875,3.448
	c1.607,0.937,3.438,1.719,5.493,2.35c2.055,0.631,4.15,1.282,6.287,1.953c2.136,0.672,4.231,1.435,6.286,2.289
	s3.886,1.953,5.493,3.296s2.899,3.021,3.876,5.035C152.771,85.783,153.26,88.275,153.26,91.245z"/>
<path fill="#1FB8FC" d="M170.167,107.114v-62.5h7.507v62.5H170.167z"/>
<path fill="#1FB8FC" d="M236.115,121.946c-0.957,2.115-2.269,3.926-3.937,5.432c-1.669,1.505-3.622,2.675-5.859,3.509
	c-2.238,0.834-4.619,1.251-7.141,1.251h-3.113c-2.523,0-4.904-0.417-7.141-1.251c-2.238-0.834-4.191-2.004-5.859-3.509
	c-1.669-1.506-2.981-3.317-3.937-5.432c-0.957-2.116-1.435-4.436-1.435-6.958v-0.244c0-2.441,0.447-4.68,1.343-6.714
	c0.895-2.034,2.115-3.804,3.662-5.31c-1.953-1.18-3.51-2.777-4.669-4.792c-1.16-2.014-1.74-4.242-1.74-6.683
	c0-2.197,0.467-4.242,1.404-6.134c0.936-1.892,2.217-3.427,3.845-4.608c-1.953-1.709-3.5-3.763-4.639-6.165
	c-1.14-2.4-1.709-5.025-1.709-7.874v-4.7c0-2.522,0.478-4.903,1.434-7.141c0.956-2.237,2.268-4.19,3.937-5.859
	c1.668-1.668,3.621-2.98,5.859-3.937c2.237-0.956,4.618-1.434,7.141-1.434h3.113c3.052,0,5.869,0.682,8.454,2.044
	c2.583,1.364,4.73,3.205,6.439,5.524l4.089-6.348h2.502v21.851c0,2.523-0.479,4.904-1.434,7.141
	c-0.957,2.238-2.269,4.191-3.937,5.859c-1.669,1.669-3.622,2.981-5.859,3.937c-2.238,0.957-4.619,1.435-7.141,1.435h-10.864
	c-0.854,0-1.669,0.173-2.441,0.519c-0.773,0.346-1.455,0.804-2.045,1.374c-0.59,0.57-1.048,1.251-1.373,2.044
	c-0.326,0.794-0.488,1.618-0.488,2.472s0.162,1.669,0.488,2.441c0.325,0.773,0.783,1.455,1.373,2.044
	c0.59,0.59,1.271,1.048,2.045,1.374c0.772,0.326,1.587,0.488,2.441,0.488h10.254c2.522,0,4.903,0.417,7.141,1.251
	c2.237,0.834,4.19,2.004,5.859,3.509c1.668,1.506,2.98,3.317,3.937,5.432c0.956,2.115,1.434,4.435,1.434,6.958v0.244
	C237.549,117.51,237.071,119.83,236.115,121.946z M230.713,61.338c0-1.505-0.285-2.919-0.854-4.242
	c-0.57-1.322-1.353-2.472-2.35-3.449s-2.157-1.749-3.479-2.319c-1.323-0.569-2.737-0.854-4.242-0.854h-6.226
	c-1.506,0-2.92,0.285-4.242,0.854c-1.322,0.57-2.472,1.343-3.448,2.319s-1.75,2.126-2.319,3.449
	c-0.57,1.322-0.854,2.737-0.854,4.242v5.554c0,1.506,0.284,2.92,0.854,4.242c0.569,1.322,1.343,2.472,2.319,3.448
	s2.126,1.75,3.448,2.319c1.322,0.57,2.736,0.854,4.242,0.854h6.226c1.505,0,2.919-0.284,4.242-0.854
	c1.322-0.569,2.481-1.343,3.479-2.319s1.78-2.126,2.35-3.448c0.569-1.322,0.854-2.736,0.854-4.242V61.338z M230.408,114.377
	c0-1.506-0.285-2.859-0.854-4.059c-0.57-1.201-1.343-2.208-2.319-3.021s-2.126-1.444-3.448-1.892
	c-1.323-0.447-2.737-0.671-4.242-0.671h-3.845c-1.506,0-2.92,0.224-4.242,0.671c-1.323,0.448-2.472,1.079-3.449,1.892
	s-1.75,1.821-2.319,3.021c-0.57,1.2-0.854,2.553-0.854,4.059v0.977c0,1.505,0.284,2.848,0.854,4.028
	c0.569,1.18,1.343,2.187,2.319,3.021c0.977,0.833,2.126,1.474,3.449,1.922c1.322,0.447,2.736,0.671,4.242,0.671h3.845
	c1.505,0,2.919-0.224,4.242-0.671c1.322-0.448,2.472-1.089,3.448-1.922c0.977-0.834,1.749-1.842,2.319-3.021
	c0.569-1.181,0.854-2.523,0.854-4.028V114.377z"/>
<path fill="#1FB8FC" d="M286.194,107.114V61.338c0-1.505-0.285-2.919-0.854-4.242c-0.57-1.322-1.343-2.472-2.319-3.449
	s-2.126-1.749-3.448-2.319c-1.323-0.569-2.737-0.854-4.242-0.854h-5.005c-1.506,0-2.92,0.285-4.242,0.854
	c-1.322,0.57-2.472,1.343-3.448,2.319s-1.75,2.126-2.319,3.449c-0.57,1.322-0.854,2.737-0.854,4.242v45.776h-7.507V19.59h7.507
	v30.273c1.709-2.034,3.763-3.621,6.165-4.761c2.4-1.139,5.005-1.709,7.813-1.709h1.892c2.522,0,4.903,0.479,7.141,1.434
	c2.237,0.957,4.19,2.269,5.859,3.937c1.668,1.669,2.98,3.622,3.937,5.859c0.956,2.238,1.434,4.619,1.434,7.141v45.349H286.194z"/>
<path fill="#1FB8FC" d="M331.482,107.114c-2.279,0-4.425-0.427-6.439-1.282c-2.014-0.854-3.764-2.034-5.249-3.54
	c-1.485-1.505-2.665-3.255-3.54-5.249c-0.875-1.993-1.313-4.129-1.313-6.409V51.755h-11.23v-7.141h11.23V29.6l7.508-1.221v16.235
	h15.869v7.141h-15.869v39.246c0,1.262,0.233,2.432,0.702,3.509c0.467,1.079,1.108,2.025,1.923,2.838
	c0.813,0.814,1.77,1.455,2.868,1.922c1.099,0.468,2.278,0.702,3.54,0.702h6.836v7.141H331.482z"/>
<path fill="#1FB8FC" d="M373.598,26.731c-1.262,0-2.433,0.234-3.51,0.702c-1.079,0.468-2.024,1.109-2.838,1.922
	c-0.814,0.814-1.456,1.77-1.923,2.869c-0.469,1.099-0.702,2.279-0.702,3.54v8.85h14.588v7.141h-14.588v55.359h-7.508V51.755h-11.291
	v-7.141h11.291V36.13c0-2.278,0.428-4.425,1.282-6.439c0.854-2.014,2.034-3.773,3.54-5.279c1.505-1.505,3.255-2.686,5.249-3.54
	c1.993-0.854,4.13-1.282,6.409-1.282h6.896v7.141H373.598z"/>
<path fill="#1FB8FC" d="M427.247,107.114l-4.15-6.348c-1.709,2.319-3.845,4.161-6.409,5.524c-2.563,1.363-5.371,2.044-8.422,2.044
	h-1.893c-2.523,0-4.903-0.479-7.141-1.434c-2.238-0.956-4.191-2.268-5.859-3.937c-1.669-1.668-2.981-3.621-3.938-5.859
	c-0.956-2.237-1.434-4.618-1.434-7.141V44.614h7.507v45.776c0,1.506,0.284,2.92,0.854,4.242c0.569,1.323,1.343,2.472,2.319,3.449
	s2.126,1.75,3.448,2.319c1.322,0.57,2.736,0.854,4.242,0.854h5.005c1.505,0,2.919-0.284,4.242-0.854
	c1.321-0.569,2.472-1.343,3.448-2.319s1.749-2.126,2.319-3.449c0.569-1.322,0.854-2.736,0.854-4.242V44.614h7.508v62.5H427.247z"/>
<path fill="#1FB8FC" d="M447.267,107.114V19.59h7.507v87.524H447.267z"/>
<path fill="#B6F041" d="M173.92,14.089c-5.746,0-10.6,4.636-10.6,10.123c0,5.626,4.583,10.24,9.891,15.582l0.707,0.712l0.709-0.709
	c6.156-6.156,9.893-10.277,9.893-15.584C184.521,18.725,179.667,14.089,173.92,14.089z M174.163,33.83l-0.242,0.243l-0.243-0.244
	c-2.929-2.924-5.957-5.947-5.957-9.14c0-3.419,2.781-6.2,6.2-6.2c3.418,0,6.2,2.781,6.2,6.2
	C180.12,27.882,177.091,30.906,174.163,33.83z"/>
</svg>
