<?xml version="1.0" encoding="utf-8"?>
<!-- Generator: Adobe Illustrator 16.0.0, SVG Export Plug-In . SVG Version: 6.00 Build 0)  -->
<!DOCTYPE svg PUBLIC "-//W3C//DTD SVG 1.1//EN" "http://www.w3.org/Graphics/SVG/1.1/DTD/svg11.dtd">
<svg version="1.1" id="Layer_1" xmlns="http://www.w3.org/2000/svg" xmlns:xlink="http://www.w3.org/1999/xlink" x="0px" y="0px"
	 width="105.333px" height="114.684px" viewBox="0 0 105.333 114.684" enable-background="new 0 0 105.333 114.684"
	 xml:space="preserve">
<path fill="#FFFFFF" d="M53.058,11.105c-5.746,0-10.601,4.637-10.601,10.123c0,5.626,4.584,10.24,9.891,15.582l0.707,0.712
	l0.71-0.709c6.155-6.155,9.894-10.276,9.894-15.584C63.659,15.741,58.804,11.105,53.058,11.105z M53.299,30.847l-0.241,0.243
	l-0.243-0.244c-2.929-2.924-5.957-5.947-5.957-9.14c0-3.419,2.781-6.2,6.2-6.2s6.2,2.781,6.2,6.2
	C59.258,24.899,56.229,27.922,53.299,30.847z"/>
<path fill="#FFFFFF" d="M53.058,41.517l-51.61,69.5h51.61h51.274L53.058,41.517z M43.516,100.316H39.99V73.483h3.526V100.316z
	 M69.581,93.764c0,1.712-0.813,3.412-2.436,5.098c-1.623,1.688-4.262,2.428-7.916,2.224l-2.146-0.115
	c-0.512-0.026-0.957-0.09-1.342-0.192c-0.179-0.025-0.613-0.141-1.303-0.345c-1.482-0.435-2.824-1.291-4.025-2.567
	c-1.355-1.432-2.032-3.45-2.032-6.058h3.53v-0.001c0,2.058,0.753,3.646,2.261,4.762c1.381,0.991,3.131,1.486,5.252,1.486
	c1.84,0,3.322-0.37,4.445-1.11c1.33-0.842,1.994-2.13,1.994-3.865c0-2.194-1.214-3.624-3.642-4.287l-0.845-0.229l-0.805-0.19
	l-1.418-0.307c-0.307-0.076-0.754-0.179-1.342-0.306c-2.889-0.638-4.868-1.327-5.941-2.067c-1.738-1.146-2.606-2.921-2.606-5.319
	c0-2.653,1.035-4.657,3.105-6.009c1.762-1.123,4.049-1.685,6.861-1.685c3.22,0,5.526,0.685,6.919,2.051
	c1.393,1.367,2.281,2.933,2.664,4.696l0.115,0.537l0.037,0.498h-3.525l-0.115-0.575l-0.115-0.613
	c-0.715-2.377-2.748-3.564-6.094-3.564c-1.611,0-2.979,0.332-4.103,0.997c-1.329,0.817-1.994,1.979-1.994,3.487
	c0,1.56,0.601,2.606,1.802,3.144c0.869,0.383,2.211,0.78,4.025,1.188l0.191,0.077h0.23l0.152,0.077h0.191l1.533,0.307
	c0.383,0.052,0.92,0.18,1.609,0.384c4.574,1.099,6.861,3.654,6.861,7.667v0.383L69.581,93.764z"/>
</svg>
