<?xml version="1.0" encoding="utf-8"?>
<!-- Generator: Adobe Illustrator 19.2.1, SVG Export Plug-In . SVG Version: 6.00 Build 0)  -->
<svg version="1.1" id="Layer_1" xmlns="http://www.w3.org/2000/svg" xmlns:xlink="http://www.w3.org/1999/xlink" x="0px" y="0px"
	 viewBox="0 0 473 138.7" style="enable-background:new 0 0 473 138.7;" xml:space="preserve">
<style type="text/css">
	.st0{fill:#444444;}
</style>
<path class="st0" d="M28.1,107.1V19.6H36v87.5H28.1z"/>
<path class="st0" d="M87.8,107.1V61.3c0-1.5-0.3-2.9-0.9-4.2c-0.6-1.3-1.3-2.5-2.3-3.4s-2.1-1.7-3.4-2.3c-1.3-0.6-2.7-0.9-4.2-0.9
	h-5c-1.5,0-2.9,0.3-4.2,0.9c-1.3,0.6-2.5,1.3-3.4,2.3s-1.8,2.1-2.3,3.4c-0.6,1.3-0.9,2.7-0.9,4.2v45.8h-7.5V44.6H56l4.1,6.3
	c1.7-2.3,3.9-4.2,6.4-5.5c2.6-1.4,5.4-2,8.5-2h1.9c2.5,0,4.9,0.5,7.1,1.4c2.2,1,4.2,2.3,5.9,3.9c1.7,1.7,3,3.6,3.9,5.9
	c1,2.2,1.4,4.6,1.4,7.1v45.3H87.8z"/>
<path class="st0" d="M153.3,91.2c0,2.5-0.5,4.8-1.5,6.9c-1,2.1-2.4,3.9-4.1,5.4c-1.8,1.5-3.8,2.7-6.1,3.5c-2.3,0.8-4.7,1.3-7.2,1.3
	h-5c-2.5,0-4.9-0.5-7.2-1.4c-2.3-1-4.3-2.3-6-3.9c-1.7-1.7-3.1-3.6-4.2-5.9c-1-2.2-1.6-4.6-1.6-7.1v-2.5l7.5-1.2v4.2
	c0,1.5,0.3,2.9,0.9,4.2c0.6,1.3,1.5,2.5,2.5,3.4s2.3,1.8,3.7,2.3c1.4,0.6,2.8,0.9,4.3,0.9h5c1.5,0,2.9-0.2,4.3-0.7
	c1.4-0.4,2.6-1.1,3.7-1.9c1.1-0.8,1.9-1.8,2.6-3c0.6-1.2,0.9-2.5,0.9-4c0-2.2-0.5-4.1-1.5-5.5c-1-1.4-2.3-2.6-3.9-3.6
	c-1.6-1-3.4-1.7-5.5-2.4s-4.2-1.3-6.3-1.9c-2.2-0.6-4.3-1.4-6.3-2.2c-2.1-0.8-3.9-1.9-5.5-3.2c-1.6-1.3-2.9-3-3.9-5
	c-1-2-1.5-4.5-1.5-7.4c0-2.5,0.5-4.8,1.5-6.9s2.3-3.9,4-5.4c1.7-1.5,3.6-2.7,5.8-3.5s4.6-1.3,7.1-1.3h4.4c2.5,0,4.9,0.5,7.1,1.4
	c2.2,1,4.2,2.3,5.9,3.9c1.7,1.7,3,3.6,3.9,5.9c1,2.2,1.4,4.6,1.4,7.1V62l-7.5,1.2v-1.9c0-1.5-0.3-2.9-0.9-4.2
	c-0.6-1.3-1.3-2.5-2.3-3.4s-2.1-1.7-3.4-2.3c-1.3-0.6-2.7-0.9-4.2-0.9h-4.4c-1.5,0-2.9,0.2-4.2,0.7c-1.3,0.4-2.5,1.1-3.4,1.9
	s-1.8,1.8-2.3,3c-0.6,1.2-0.9,2.5-0.9,4c0,2.2,0.5,3.9,1.5,5.3s2.3,2.5,3.9,3.4c1.6,0.9,3.4,1.7,5.5,2.3c2.1,0.6,4.1,1.3,6.3,2
	c2.1,0.7,4.2,1.4,6.3,2.3s3.9,2,5.5,3.3s2.9,3,3.9,5C152.8,85.8,153.3,88.3,153.3,91.2z"/>
<path class="st0" d="M170.2,107.1V44.6h7.5v62.5H170.2z"/>
<path class="st0" d="M236.1,121.9c-1,2.1-2.3,3.9-3.9,5.4c-1.7,1.5-3.6,2.7-5.9,3.5c-2.2,0.8-4.6,1.3-7.1,1.3h-3.1
	c-2.5,0-4.9-0.4-7.1-1.3c-2.2-0.8-4.2-2-5.9-3.5c-1.7-1.5-3-3.3-3.9-5.4c-1-2.1-1.4-4.4-1.4-7v-0.2c0-2.4,0.4-4.7,1.3-6.7
	c0.9-2,2.1-3.8,3.7-5.3c-2-1.2-3.5-2.8-4.7-4.8c-1.2-2-1.7-4.2-1.7-6.7c0-2.2,0.5-4.2,1.4-6.1c0.9-1.9,2.2-3.4,3.8-4.6
	c-2-1.7-3.5-3.8-4.6-6.2c-1.1-2.4-1.7-5-1.7-7.9v-4.7c0-2.5,0.5-4.9,1.4-7.1c1-2.2,2.3-4.2,3.9-5.9c1.7-1.7,3.6-3,5.9-3.9
	c2.2-1,4.6-1.4,7.1-1.4h3.1c3.1,0,5.9,0.7,8.5,2c2.6,1.4,4.7,3.2,6.4,5.5l4.1-6.3h2.5v21.9c0,2.5-0.5,4.9-1.4,7.1
	c-1,2.2-2.3,4.2-3.9,5.9c-1.7,1.7-3.6,3-5.9,3.9c-2.2,1-4.6,1.4-7.1,1.4h-10.9c-0.9,0-1.7,0.2-2.4,0.5c-0.8,0.3-1.5,0.8-2,1.4
	s-1,1.3-1.4,2c-0.3,0.8-0.5,1.6-0.5,2.5s0.2,1.7,0.5,2.4c0.3,0.8,0.8,1.5,1.4,2c0.6,0.6,1.3,1,2,1.4c0.8,0.3,1.6,0.5,2.4,0.5h10.3
	c2.5,0,4.9,0.4,7.1,1.3c2.2,0.8,4.2,2,5.9,3.5c1.7,1.5,3,3.3,3.9,5.4c1,2.1,1.4,4.4,1.4,7v0.2C237.5,117.5,237.1,119.8,236.1,121.9z
	 M230.7,61.3c0-1.5-0.3-2.9-0.9-4.2c-0.6-1.3-1.4-2.5-2.4-3.4s-2.2-1.7-3.5-2.3c-1.3-0.6-2.7-0.9-4.2-0.9h-6.2
	c-1.5,0-2.9,0.3-4.2,0.9c-1.3,0.6-2.5,1.3-3.4,2.3s-1.8,2.1-2.3,3.4c-0.6,1.3-0.9,2.7-0.9,4.2v5.6c0,1.5,0.3,2.9,0.9,4.2
	c0.6,1.3,1.3,2.5,2.3,3.4s2.1,1.8,3.4,2.3c1.3,0.6,2.7,0.9,4.2,0.9h6.2c1.5,0,2.9-0.3,4.2-0.9c1.3-0.6,2.5-1.3,3.5-2.3
	s1.8-2.1,2.4-3.4c0.6-1.3,0.9-2.7,0.9-4.2V61.3z M230.4,114.4c0-1.5-0.3-2.9-0.9-4.1c-0.6-1.2-1.3-2.2-2.3-3s-2.1-1.4-3.4-1.9
	c-1.3-0.4-2.7-0.7-4.2-0.7h-3.8c-1.5,0-2.9,0.2-4.2,0.7c-1.3,0.4-2.5,1.1-3.4,1.9s-1.8,1.8-2.3,3c-0.6,1.2-0.9,2.6-0.9,4.1v1
	c0,1.5,0.3,2.8,0.9,4c0.6,1.2,1.3,2.2,2.3,3c1,0.8,2.1,1.5,3.4,1.9c1.3,0.4,2.7,0.7,4.2,0.7h3.8c1.5,0,2.9-0.2,4.2-0.7
	c1.3-0.4,2.5-1.1,3.4-1.9c1-0.8,1.7-1.8,2.3-3c0.6-1.2,0.9-2.5,0.9-4V114.4z"/>
<path class="st0" d="M286.2,107.1V61.3c0-1.5-0.3-2.9-0.9-4.2c-0.6-1.3-1.3-2.5-2.3-3.4s-2.1-1.7-3.4-2.3c-1.3-0.6-2.7-0.9-4.2-0.9
	h-5c-1.5,0-2.9,0.3-4.2,0.9c-1.3,0.6-2.5,1.3-3.4,2.3s-1.8,2.1-2.3,3.4c-0.6,1.3-0.9,2.7-0.9,4.2v45.8H252V19.6h7.5v30.3
	c1.7-2,3.8-3.6,6.2-4.8c2.4-1.1,5-1.7,7.8-1.7h1.9c2.5,0,4.9,0.5,7.1,1.4c2.2,1,4.2,2.3,5.9,3.9c1.7,1.7,3,3.6,3.9,5.9
	c1,2.2,1.4,4.6,1.4,7.1v45.3L286.2,107.1L286.2,107.1z"/>
<path class="st0" d="M331.5,107.1c-2.3,0-4.4-0.4-6.4-1.3c-2-0.9-3.8-2-5.2-3.5c-1.5-1.5-2.7-3.3-3.5-5.2c-0.9-2-1.3-4.1-1.3-6.4
	V51.8h-11.2v-7.1h11.2v-15l7.5-1.2v16.2h15.9v7.1h-15.9V91c0,1.3,0.2,2.4,0.7,3.5c0.5,1.1,1.1,2,1.9,2.8c0.8,0.8,1.8,1.5,2.9,1.9
	c1.1,0.5,2.3,0.7,3.5,0.7h6.8v7.1L331.5,107.1L331.5,107.1z"/>
<path class="st0" d="M373.6,26.7c-1.3,0-2.4,0.2-3.5,0.7c-1.1,0.5-2,1.1-2.8,1.9c-0.8,0.8-1.5,1.8-1.9,2.9c-0.5,1.1-0.7,2.3-0.7,3.5
	v8.9h14.6v7.1h-14.6v55.4h-7.5V51.8h-11.3v-7.1h11.3v-8.5c0-2.3,0.4-4.4,1.3-6.4s2-3.8,3.5-5.3c1.5-1.5,3.3-2.7,5.2-3.5
	c2-0.9,4.1-1.3,6.4-1.3h6.9v7.1C380.5,26.7,373.6,26.7,373.6,26.7z"/>
<path class="st0" d="M427.2,107.1l-4.1-6.3c-1.7,2.3-3.8,4.2-6.4,5.5c-2.6,1.4-5.4,2-8.4,2h-1.9c-2.5,0-4.9-0.5-7.1-1.4
	c-2.2-1-4.2-2.3-5.9-3.9c-1.7-1.7-3-3.6-3.9-5.9c-1-2.2-1.4-4.6-1.4-7.1V44.6h7.5v45.8c0,1.5,0.3,2.9,0.9,4.2
	c0.6,1.3,1.3,2.5,2.3,3.4s2.1,1.8,3.4,2.3c1.3,0.6,2.7,0.9,4.2,0.9h5c1.5,0,2.9-0.3,4.2-0.9c1.3-0.6,2.5-1.3,3.4-2.3
	s1.7-2.1,2.3-3.4c0.6-1.3,0.9-2.7,0.9-4.2V44.6h7.5v62.5H427.2z"/>
<path class="st0" d="M447.3,107.1V19.6h7.5v87.5H447.3z"/>
<path class="st0" d="M173.9,14.1c-5.7,0-10.6,4.6-10.6,10.1c0,5.6,4.6,10.2,9.9,15.6l0.7,0.7l0.7-0.7c6.2-6.2,9.9-10.3,9.9-15.6
	C184.5,18.7,179.7,14.1,173.9,14.1z M174.2,33.8l-0.2,0.2l-0.2-0.2c-2.9-2.9-6-5.9-6-9.1c0-3.4,2.8-6.2,6.2-6.2
	c3.4,0,6.2,2.8,6.2,6.2C180.1,27.9,177.1,30.9,174.2,33.8z"/>
</svg>
