<?xml version="1.0" encoding="utf-8"?>
<!-- Generator: Adobe Illustrator 16.0.0, SVG Export Plug-In . SVG Version: 6.00 Build 0)  -->
<!DOCTYPE svg PUBLIC "-//W3C//DTD SVG 1.1//EN" "http://www.w3.org/Graphics/SVG/1.1/DTD/svg11.dtd">
<svg version="1.1" id="Layer_1" xmlns="http://www.w3.org/2000/svg" xmlns:xlink="http://www.w3.org/1999/xlink" x="0px" y="0px"
	 width="105.333px" height="114.684px" viewBox="0 0 105.333 114.684" enable-background="new 0 0 105.333 114.684"
	 xml:space="preserve">
<g>
	<path fill="#ADEF30" d="M53.058,11.105c-5.746,0-10.601,4.636-10.601,10.123c0,5.626,4.584,10.24,9.891,15.582l0.707,0.712
		l0.71-0.709c6.155-6.156,9.894-10.277,9.894-15.584C63.658,15.741,58.804,11.105,53.058,11.105z M53.3,30.847l-0.242,0.243
		l-0.243-0.244c-2.929-2.924-5.957-5.947-5.957-9.14c0-3.419,2.781-6.2,6.2-6.2s6.2,2.781,6.2,6.2
		C59.258,24.899,56.229,27.922,53.3,30.847z"/>
	<polygon fill="#1FB8FC" points="53.058,41.517 1.448,111.017 53.058,111.017 104.333,111.017 	"/>
	<g>
		<path fill="#FFFFFF" d="M43.516,73.483v26.833H39.99V73.483H43.516z"/>
		<path fill="#FFFFFF" d="M51.911,91.807c0,2.057,0.753,3.645,2.262,4.762c1.38,0.991,3.13,1.486,5.251,1.486
			c1.84,0,3.322-0.37,4.446-1.11c1.329-0.842,1.994-2.13,1.994-3.866c0-2.194-1.214-3.624-3.642-4.287l-0.844-0.229l-0.805-0.191
			l-1.418-0.306c-0.307-0.077-0.754-0.179-1.342-0.306c-2.888-0.638-4.868-1.327-5.941-2.067c-1.738-1.147-2.606-2.921-2.606-5.32
			c0-2.653,1.035-4.657,3.105-6.009c1.763-1.123,4.05-1.684,6.861-1.684c3.22,0,5.526,0.684,6.919,2.051
			c1.393,1.367,2.281,2.932,2.664,4.696l0.115,0.537l0.038,0.498h-3.526l-0.115-0.575l-0.115-0.613
			c-0.716-2.377-2.748-3.565-6.095-3.565c-1.61,0-2.978,0.332-4.102,0.997c-1.329,0.818-1.994,1.98-1.994,3.488
			c0,1.559,0.6,2.606,1.802,3.143c0.869,0.383,2.21,0.78,4.025,1.188l0.192,0.077h0.23l0.153,0.077h0.191l1.533,0.307
			c0.383,0.051,0.92,0.179,1.61,0.383c4.574,1.099,6.861,3.655,6.861,7.667v0.383l-0.038,0.345c0,1.712-0.812,3.412-2.435,5.098
			c-1.623,1.687-4.261,2.427-7.916,2.223l-2.146-0.115c-0.512-0.026-0.958-0.09-1.342-0.192c-0.179-0.026-0.613-0.141-1.303-0.345
			c-1.482-0.435-2.824-1.291-4.025-2.568c-1.355-1.431-2.032-3.45-2.032-6.057H51.911z"/>
	</g>
</g>
</svg>
