<?xml version="1.0" encoding="utf-8"?>
<!-- Generator: Adobe Illustrator 19.2.1, SVG Export Plug-In . SVG Version: 6.00 Build 0)  -->
<svg version="1.1" id="Layer_1" xmlns="http://www.w3.org/2000/svg" xmlns:xlink="http://www.w3.org/1999/xlink" x="0px" y="0px"
	 viewBox="0 0 105.3 114.7" style="enable-background:new 0 0 105.3 114.7;" xml:space="preserve">
<style type="text/css">
	.st0{fill:#333333;}
</style>
<g>
	<path class="st0" d="M53.1,11.1c-5.7,0-10.6,4.6-10.6,10.1c0,5.6,4.6,10.2,9.9,15.6l0.7,0.7l0.7-0.7c6.2-6.2,9.9-10.3,9.9-15.6
		C63.7,15.7,58.8,11.1,53.1,11.1z M53.3,30.8l-0.2,0.2l-0.2-0.2c-2.9-2.9-6-5.9-6-9.1c0-3.4,2.8-6.2,6.2-6.2s6.2,2.8,6.2,6.2
		C59.3,24.9,56.2,27.9,53.3,30.8z"/>
	<path class="st0" d="M53.1,41.5L1.4,111h51.6h51.3L53.1,41.5z M43.5,100.3H40V73.5h3.5V100.3z M69.6,93.4c0,1.7-0.9,3.8-2.5,5.4
		c-1.6,1.7-4.3,2.4-7.9,2.2l-2.1-0.1c-0.5,0-1-0.1-1.3-0.2c-0.2,0-0.6-0.1-1.3-0.3c-1.5-0.4-2.8-1.3-4-2.6c-1.4-1.4-2-3.5-2-6.1h3.5
		v0c0,2.1,0.8,3.6,2.3,4.8c1.4,1,3.1,1.5,5.3,1.5c1.8,0,3.3-0.4,4.4-1.1c1.3-0.8,2-2.1,2-3.9c0-2.2-1.2-3.6-3.6-4.3l-0.8-0.2
		l-0.8-0.2l-1.4-0.3c-0.3-0.1-0.8-0.2-1.3-0.3c-2.9-0.6-4.9-1.3-5.9-2.1c-1.7-1.1-2.6-2.9-2.6-5.3c0-2.7,1-4.7,3.1-6
		c1.8-1.1,4-1.7,6.9-1.7c3.2,0,5.5,0.7,6.9,2.1s2.3,2.9,2.7,4.7l0.1,0.5l0,0.5h-3.5l-0.1-0.6l-0.1-0.6c-0.7-2.4-2.7-3.6-6.1-3.6
		c-1.6,0-3,0.3-4.1,1c-1.3,0.8-2,2-2,3.5c0,1.6,0.6,2.6,1.8,3.1c0.9,0.4,2.2,0.8,4,1.2l0.2,0.1h0.2l0.2,0.1h0.2l1.5,0.3
		c0.4,0.1,0.9,0.2,1.6,0.4C67.3,86.5,69.6,89.4,69.6,93.4L69.6,93.4L69.6,93.4z"/>
</g>
</svg>
