<?xml version="1.0" encoding="utf-8"?>
<!-- Generator: Adobe Illustrator 19.2.1, SVG Export Plug-In . SVG Version: 6.00 Build 0)  -->
<svg version="1.1" id="Layer_1" xmlns="http://www.w3.org/2000/svg" xmlns:xlink="http://www.w3.org/1999/xlink" x="0px" y="0px"
	 viewBox="0 0 160.7 311.5" style="enable-background:new 0 0 160.7 311.5;" xml:space="preserve">
<style type="text/css">
	.st0{fill:none;stroke:#FFFFFF;stroke-miterlimit:10;}
</style>
<path class="st0" d="M156.8,31c0-13.8-9.6-25-21.5-25H27.7C15.9,6,6.2,17.2,6.2,31v249.6c0,13.8,9.6,25,21.5,25h107.5
	c11.9,0,21.5-11.2,21.5-25V31z"/>
<path class="st0" d="M65.4,18.1h32.3c3,0,5.4,2.5,5.4,5.6s-2.4,5.6-5.4,5.6H65.4c-3,0-5.4-2.5-5.4-5.6S62.4,18.1,65.4,18.1z"/>
<path class="st0" d="M81.5,293.4c-5.9,0-10.8-5-10.8-11.1s4.8-11.1,10.8-11.1c5.9,0,10.7,5,10.7,11.1S87.5,293.4,81.5,293.4z"/>
<rect x="11.5" y="44.8" class="st0" width="140.1" height="213.1"/>
<path class="st0" d="M156.8,31c0-13.8-9.6-25-21.5-25H27.7C15.9,6,6.2,17.2,6.2,31v249.6c0,13.8,9.6,25,21.5,25h107.5
	c11.9,0,21.5-11.2,21.5-25V31z"/>
<path class="st0" d="M65.4,18.1h32.3c3,0,5.4,2.5,5.4,5.6s-2.4,5.6-5.4,5.6H65.4c-3,0-5.4-2.5-5.4-5.6S62.4,18.1,65.4,18.1z"/>
<path class="st0" d="M81.5,293.4c-5.9,0-10.8-5-10.8-11.1s4.8-11.1,10.8-11.1c5.9,0,10.7,5,10.7,11.1S87.5,293.4,81.5,293.4z"/>
<rect x="11.5" y="44.8" class="st0" width="140.1" height="213.1"/>
</svg>
